<svg width="38" height="38" viewBox="0 0 38 38" fill="none" xmlns="http://www.w3.org/2000/svg">
<g clip-path="url(#clip0_32_1408)">
<path d="M18.9998 36.1845C19.6647 36.1692 20.3028 35.9192 20.8012 35.4788C21.2996 35.0383 21.6261 34.4358 21.7231 33.7778H16.1709C16.2706 34.4537 16.6125 35.0704 17.1328 35.5131C17.6532 35.9558 18.3167 36.1944 18.9998 36.1845Z" fill="white"/>
<path d="M34.675 29.6927L34.3161 29.376C33.298 28.4689 32.4068 27.4286 31.6667 26.2833C30.8584 24.7026 30.3739 22.9764 30.2417 21.206V15.9916C30.2374 15.3582 30.1809 14.7263 30.0728 14.1021C28.2848 13.7346 26.6788 12.7606 25.5265 11.3448C24.3743 9.92905 23.7467 8.15862 23.75 6.33326V5.66826C22.648 5.1259 21.4639 4.76925 20.2456 4.6127V3.2827C20.2456 2.90897 20.0971 2.55054 19.8329 2.28627C19.5686 2.022 19.2102 1.87354 18.8364 1.87354C18.4627 1.87354 18.1043 2.022 17.84 2.28627C17.5757 2.55054 17.4273 2.90897 17.4273 3.2827V4.66548C14.6994 5.05029 12.2029 6.40899 10.3985 8.49074C8.59423 10.5725 7.60397 13.2367 7.61059 15.9916V21.206C7.47839 22.9764 6.99391 24.7026 6.18559 26.2833C5.45819 27.4257 4.58135 28.4659 3.57837 29.376L3.21948 29.6927V32.6694H34.675V29.6927Z" fill="white"/>
<path d="M31.6664 11.6112C34.5813 11.6112 36.9442 9.24828 36.9442 6.33344C36.9442 3.41861 34.5813 1.05566 31.6664 1.05566C28.7516 1.05566 26.3887 3.41861 26.3887 6.33344C26.3887 9.24828 28.7516 11.6112 31.6664 11.6112Z" fill="white"/>
</g>
<defs>
<clipPath id="clip0_32_1408">
<rect width="38" height="38" fill="white"/>
</clipPath>
</defs>
</svg>
