<svg width="16" height="16" viewBox="0 0 16 16" fill="none" xmlns="http://www.w3.org/2000/svg">
<path d="M10.1327 16C10.2742 16 10.4098 15.9398 10.5098 15.8326C10.6098 15.7255 10.666 15.5801 10.666 15.4286C10.666 15.277 10.6098 15.1317 10.5098 15.0245C10.4098 14.9173 10.2742 14.8571 10.1327 14.8571H3.19981C2.63405 14.8571 2.09146 14.6163 1.6914 14.1877C1.29135 13.759 1.0666 13.1776 1.0666 12.5714V3.42857C1.0666 2.82236 1.29135 2.24098 1.6914 1.81233C2.09146 1.38367 2.63405 1.14286 3.19981 1.14286H10.1327C10.2742 1.14286 10.4098 1.08265 10.5098 0.975489C10.6098 0.868326 10.666 0.722981 10.666 0.571429C10.666 0.419876 10.6098 0.274531 10.5098 0.167368C10.4098 0.060204 10.2742 0 10.1327 0H3.19981C2.35117 0 1.53728 0.361224 0.937203 1.00421C0.337122 1.64719 0 2.51926 0 3.42857V12.5714C0 13.4807 0.337122 14.3528 0.937203 14.9958C1.53728 15.6388 2.35117 16 3.19981 16H10.1327ZM11.3551 3.59543C11.4046 3.54221 11.4634 3.49999 11.5282 3.47119C11.593 3.44238 11.6625 3.42755 11.7326 3.42755C11.8028 3.42755 11.8722 3.44238 11.937 3.47119C12.0018 3.49999 12.0607 3.54221 12.1102 3.59543L15.8433 7.59543C15.893 7.64851 15.9324 7.71157 15.9593 7.78099C15.9862 7.85041 16 7.92484 16 8C16 8.07516 15.9862 8.14959 15.9593 8.21901C15.9324 8.28843 15.893 8.35149 15.8433 8.40457L12.1102 12.4046C12.0606 12.4577 12.0018 12.4998 11.937 12.5286C11.8722 12.5574 11.8028 12.5722 11.7326 12.5722C11.6625 12.5722 11.5931 12.5574 11.5283 12.5286C11.4635 12.4998 11.4046 12.4577 11.3551 12.4046C11.3055 12.3514 11.2661 12.2884 11.2393 12.219C11.2125 12.1495 11.1987 12.0751 11.1987 12C11.1987 11.9249 11.2125 11.8505 11.2393 11.781C11.2661 11.7116 11.3055 11.6486 11.3551 11.5954L14.1784 8.57143H4.79971C4.65827 8.57143 4.52263 8.51123 4.42261 8.40406C4.3226 8.2969 4.26641 8.15155 4.26641 8C4.26641 7.84845 4.3226 7.7031 4.42261 7.59594C4.52263 7.48878 4.65827 7.42857 4.79971 7.42857H14.1784L11.3551 4.40457C11.3054 4.35149 11.266 4.28843 11.2391 4.21901C11.2122 4.14959 11.1984 4.07516 11.1984 4C11.1984 3.92484 11.2122 3.85041 11.2391 3.78099C11.266 3.71157 11.3054 3.64851 11.3551 3.59543Z" fill="#6C757D"/>
</svg>
