<svg width="16" height="16" viewBox="0 0 16 16" fill="none" xmlns="http://www.w3.org/2000/svg">
<path d="M7.33333 14.0001H3.33333C2.96667 14.0001 2.65267 13.8696 2.39133 13.6087C2.13044 13.3474 2 13.0334 2 12.6667V3.33341C2 2.96675 2.13044 2.65275 2.39133 2.39141C2.65267 2.13053 2.96667 2.00008 3.33333 2.00008H6.11667C6.23889 1.61119 6.47778 1.29164 6.83333 1.04141C7.18889 0.791637 7.57778 0.666748 8 0.666748C8.44444 0.666748 8.84178 0.791637 9.192 1.04141C9.54178 1.29164 9.77778 1.61119 9.9 2.00008H12.6667C13.0333 2.00008 13.3473 2.13053 13.6087 2.39141C13.8696 2.65275 14 2.96675 14 3.33341V6.66675H12.6667V3.33341H11.3333V4.00008C11.3333 4.36675 11.2029 4.68053 10.942 4.94141C10.6807 5.20275 10.3667 5.33342 10 5.33342H6C5.63333 5.33342 5.31956 5.20275 5.05867 4.94141C4.79733 4.68053 4.66667 4.36675 4.66667 4.00008V3.33341H3.33333V12.6667H7.33333V14.0001ZM10.3333 11.4167L13.6333 8.11675C13.7556 7.99453 13.9111 7.93341 14.1 7.93341C14.2889 7.93341 14.4444 7.99453 14.5667 8.11675C14.6889 8.23897 14.75 8.39453 14.75 8.58342C14.75 8.7723 14.6889 8.92786 14.5667 9.05008L10.8 12.8167C10.6667 12.9501 10.5111 13.0167 10.3333 13.0167C10.1556 13.0167 10 12.9501 9.86667 12.8167L7.96667 10.9167C7.84444 10.7945 7.78333 10.639 7.78333 10.4501C7.78333 10.2612 7.84444 10.1056 7.96667 9.98342C8.08889 9.86119 8.24444 9.80008 8.43333 9.80008C8.62222 9.80008 8.77778 9.86119 8.9 9.98342L10.3333 11.4167ZM8 3.33341C8.18889 3.33341 8.34733 3.26941 8.47533 3.14141C8.60289 3.01386 8.66667 2.85564 8.66667 2.66675C8.66667 2.47786 8.60289 2.31941 8.47533 2.19141C8.34733 2.06386 8.18889 2.00008 8 2.00008C7.81111 2.00008 7.65289 2.06386 7.52533 2.19141C7.39733 2.31941 7.33333 2.47786 7.33333 2.66675C7.33333 2.85564 7.39733 3.01386 7.52533 3.14141C7.65289 3.26941 7.81111 3.33341 8 3.33341Z" fill="#6C757D"/>
</svg>
