<svg width="26" height="26" viewBox="0 0 26 26" fill="none" xmlns="http://www.w3.org/2000/svg">
<g clip-path="url(#clip0_17_3724)">
<path d="M22.88 23.92C24.0288 23.92 24.96 22.9888 24.96 21.84C24.96 20.6913 24.0288 19.76 22.88 19.76C21.7313 19.76 20.8 20.6913 20.8 21.84C20.8 22.9888 21.7313 23.92 22.88 23.92Z" fill="#6C757D"/>
<path d="M7.79997 23.92C8.94872 23.92 9.87997 22.9888 9.87997 21.84C9.87997 20.6913 8.94872 19.76 7.79997 19.76C6.65122 19.76 5.71997 20.6913 5.71997 21.84C5.71997 22.9888 6.65122 23.92 7.79997 23.92Z" fill="#6C757D"/>
<path d="M24.44 17.16H8.20092L8.54776 16.5974C8.69648 16.3561 8.74016 16.0644 8.66892 15.7898L8.3304 14.4867L23.4016 13.7036C23.973 13.6744 24.44 13.182 24.44 12.61V5.71999C24.44 5.14799 23.972 4.67999 23.4 4.67999H5.78188L5.57856 3.89844C5.52064 3.67552 5.39036 3.47815 5.20816 3.33726C5.02596 3.19638 4.80215 3.11996 4.57184 3.12H1.04C0.764175 3.12 0.499647 3.22957 0.304609 3.4246C0.109571 3.61964 0 3.88417 0 4.15999C0 4.43582 0.109571 4.70035 0.304609 4.89539C0.499647 5.09042 0.764175 5.19999 1.04 5.19999H3.76792L6.54472 15.8834L5.45272 17.654C5.35559 17.8115 5.3023 17.9922 5.29837 18.1772C5.29444 18.3622 5.34001 18.545 5.43036 18.7065C5.52035 18.8682 5.65192 19.0029 5.81145 19.0967C5.97099 19.1905 6.15269 19.24 6.33776 19.24H24.44C24.7158 19.24 24.9804 19.1304 25.1754 18.9354C25.3704 18.7403 25.48 18.4758 25.48 18.2C25.48 17.9242 25.3704 17.6596 25.1754 17.4646C24.9804 17.2696 24.7158 17.16 24.44 17.16Z" fill="#6C757D"/>
</g>
<defs>
<clipPath id="clip0_17_3724">
<rect width="26" height="26" fill="white"/>
</clipPath>
</defs>
</svg>
