<svg width="40" height="34" viewBox="0 0 40 34" fill="none" xmlns="http://www.w3.org/2000/svg">
<path d="M35.9184 34C37.7218 34 39.1837 32.4777 39.1837 30.6C39.1837 28.7222 37.7218 27.2 35.9184 27.2C34.115 27.2 32.6531 28.7222 32.6531 30.6C32.6531 32.4777 34.115 34 35.9184 34Z" fill="white"/>
<path d="M12.2448 34C14.0482 34 15.5101 32.4777 15.5101 30.6C15.5101 28.7222 14.0482 27.2 12.2448 27.2C10.4414 27.2 8.97949 28.7222 8.97949 30.6C8.97949 32.4777 10.4414 34 12.2448 34Z" fill="white"/>
<path d="M38.3673 22.95H12.8743L13.4188 22.0303C13.6522 21.6359 13.7208 21.159 13.609 20.7103L13.0776 18.5802L36.7371 17.3001C37.6343 17.2525 38.3673 16.4475 38.3673 15.5125V4.25C38.3673 3.315 37.6327 2.55 36.7347 2.55H9.07674L8.75755 1.27245C8.66662 0.908078 8.4621 0.585442 8.17607 0.355152C7.89005 0.124862 7.5387 -5.3705e-05 7.17714 1.7321e-08H1.63265C1.19965 1.7321e-08 0.784375 0.179107 0.478193 0.497918C0.172011 0.81673 0 1.24913 0 1.7C0 2.15087 0.172011 2.58327 0.478193 2.90208C0.784375 3.22089 1.19965 3.4 1.63265 3.4H5.9151L10.2743 20.8633L8.56 23.7575C8.40752 24.015 8.32387 24.3103 8.31769 24.6127C8.31152 24.9152 8.38306 25.2139 8.5249 25.4779C8.66616 25.7422 8.87271 25.9625 9.12316 26.1158C9.37361 26.2691 9.65886 26.35 9.94939 26.35H38.3673C38.8004 26.35 39.2156 26.1709 39.5218 25.8521C39.828 25.5333 40 25.1009 40 24.65C40 24.1991 39.828 23.7667 39.5218 23.4479C39.2156 23.1291 38.8004 22.95 38.3673 22.95Z" fill="white"/>
</svg>
