<svg width="30" height="30" viewBox="0 0 30 30" fill="none" xmlns="http://www.w3.org/2000/svg">
<g clip-path="url(#clip0_32_1355)">
<path d="M21.2887 11.9137C21.4648 11.7377 21.5636 11.4989 21.5636 11.25C21.5636 11.001 21.4648 10.7623 21.2887 10.5862C21.1127 10.4102 20.8739 10.3113 20.625 10.3113C20.376 10.3113 20.1373 10.4102 19.9612 10.5862L15 15.5493L12.8512 13.3987C12.764 13.3115 12.6606 13.2424 12.5467 13.1952C12.4328 13.1481 12.3107 13.1238 12.1875 13.1238C12.0642 13.1238 11.9421 13.1481 11.8282 13.1952C11.7144 13.2424 11.6109 13.3115 11.5237 13.3987C11.4365 13.4859 11.3674 13.5894 11.3202 13.7032C11.2731 13.8171 11.2488 13.9392 11.2488 14.0625C11.2488 14.1857 11.2731 14.3078 11.3202 14.4217C11.3674 14.5356 11.4365 14.639 11.5237 14.7262L14.3362 17.5387C14.4233 17.626 14.5268 17.6953 14.6407 17.7425C14.7545 17.7898 14.8767 17.8141 15 17.8141C15.1233 17.8141 15.2454 17.7898 15.3593 17.7425C15.4732 17.6953 15.5766 17.626 15.6637 17.5387L21.2887 11.9137Z" fill="#6C757D"/>
<path d="M0.9375 1.875C0.68886 1.875 0.450403 1.97377 0.274587 2.14959C0.0987721 2.3254 0 2.56386 0 2.8125C0 3.06114 0.0987721 3.2996 0.274587 3.47541C0.450403 3.65123 0.68886 3.75 0.9375 3.75H3.01875L3.77062 6.76313L6.57938 21.735C6.61959 21.9498 6.7336 22.1439 6.90171 22.2836C7.06981 22.4232 7.28144 22.4998 7.5 22.5H9.375C8.38044 22.5 7.42661 22.8951 6.72335 23.5984C6.02009 24.3016 5.625 25.2554 5.625 26.25C5.625 27.2446 6.02009 28.1984 6.72335 28.9016C7.42661 29.6049 8.38044 30 9.375 30C10.3696 30 11.3234 29.6049 12.0267 28.9016C12.7299 28.1984 13.125 27.2446 13.125 26.25C13.125 25.2554 12.7299 24.3016 12.0267 23.5984C11.3234 22.8951 10.3696 22.5 9.375 22.5H22.5C21.5054 22.5 20.5516 22.8951 19.8484 23.5984C19.1451 24.3016 18.75 25.2554 18.75 26.25C18.75 27.2446 19.1451 28.1984 19.8484 28.9016C20.5516 29.6049 21.5054 30 22.5 30C23.4946 30 24.4484 29.6049 25.1516 28.9016C25.8549 28.1984 26.25 27.2446 26.25 26.25C26.25 25.2554 25.8549 24.3016 25.1516 23.5984C24.4484 22.8951 23.4946 22.5 22.5 22.5H24.375C24.5936 22.4998 24.8052 22.4232 24.9733 22.2836C25.1414 22.1439 25.2554 21.9498 25.2956 21.735L28.1081 6.735C28.1335 6.59969 28.1287 6.46047 28.0941 6.32722C28.0596 6.19397 27.9961 6.06996 27.9082 5.96401C27.8204 5.85805 27.7102 5.77275 27.5857 5.71416C27.4611 5.65557 27.3252 5.62513 27.1875 5.625H5.41875L4.65937 2.58562C4.60877 2.38272 4.49177 2.20256 4.327 2.0738C4.16222 1.94503 3.95912 1.87506 3.75 1.875H0.9375ZM8.27812 20.625L5.81625 7.5H26.0588L23.5969 20.625H8.27812ZM11.25 26.25C11.25 26.7473 11.0525 27.2242 10.7008 27.5758C10.3492 27.9275 9.87228 28.125 9.375 28.125C8.87772 28.125 8.40081 27.9275 8.04918 27.5758C7.69754 27.2242 7.5 26.7473 7.5 26.25C7.5 25.7527 7.69754 25.2758 8.04918 24.9242C8.40081 24.5725 8.87772 24.375 9.375 24.375C9.87228 24.375 10.3492 24.5725 10.7008 24.9242C11.0525 25.2758 11.25 25.7527 11.25 26.25ZM24.375 26.25C24.375 26.7473 24.1775 27.2242 23.8258 27.5758C23.4742 27.9275 22.9973 28.125 22.5 28.125C22.0027 28.125 21.5258 27.9275 21.1742 27.5758C20.8225 27.2242 20.625 26.7473 20.625 26.25C20.625 25.7527 20.8225 25.2758 21.1742 24.9242C21.5258 24.5725 22.0027 24.375 22.5 24.375C22.9973 24.375 23.4742 24.5725 23.8258 24.9242C24.1775 25.2758 24.375 25.7527 24.375 26.25Z" fill="#6C757D"/>
</g>
<defs>
<clipPath id="clip0_32_1355">
<rect width="30" height="30" fill="white"/>
</clipPath>
</defs>
</svg>
