<svg width="16" height="16" viewBox="0 0 16 16" fill="none" xmlns="http://www.w3.org/2000/svg">
<path d="M14 1C14.2652 1 14.5196 1.10536 14.7071 1.29289C14.8946 1.48043 15 1.73478 15 2V14C15 14.2652 14.8946 14.5196 14.7071 14.7071C14.5196 14.8946 14.2652 15 14 15H2C1.73478 15 1.48043 14.8946 1.29289 14.7071C1.10536 14.5196 1 14.2652 1 14V2C1 1.73478 1.10536 1.48043 1.29289 1.29289C1.48043 1.10536 1.73478 1 2 1H14ZM2 0C1.46957 0 0.960859 0.210714 0.585786 0.585786C0.210714 0.960859 0 1.46957 0 2L0 14C0 14.5304 0.210714 15.0391 0.585786 15.4142C0.960859 15.7893 1.46957 16 2 16H14C14.5304 16 15.0391 15.7893 15.4142 15.4142C15.7893 15.0391 16 14.5304 16 14V2C16 1.46957 15.7893 0.960859 15.4142 0.585786C15.0391 0.210714 14.5304 0 14 0L2 0Z" fill="#6C757D"/>
<path d="M10.9699 4.97004C11.1099 4.83131 11.2988 4.75323 11.4958 4.75269C11.6929 4.75214 11.8823 4.82918 12.023 4.96713C12.1637 5.10508 12.2444 5.29288 12.2478 5.4899C12.2512 5.68693 12.1768 5.87737 12.0409 6.02004L8.04891 11.01C7.9803 11.0839 7.8975 11.1432 7.80545 11.1844C7.71339 11.2256 7.61399 11.2477 7.51316 11.2496C7.41234 11.2515 7.31218 11.233 7.21867 11.1953C7.12516 11.1575 7.04021 11.1013 6.96891 11.03L4.32391 8.38404C4.25023 8.31537 4.19112 8.23257 4.15013 8.14057C4.10914 8.04858 4.0871 7.94926 4.08532 7.84856C4.08355 7.74786 4.10207 7.64783 4.13979 7.55444C4.17751 7.46105 4.23366 7.37622 4.30488 7.305C4.37609 7.23378 4.46093 7.17763 4.55432 7.13991C4.6477 7.10219 4.74773 7.08367 4.84844 7.08544C4.94914 7.08722 5.04845 7.10926 5.14045 7.15026C5.23245 7.19125 5.31525 7.25035 5.38391 7.32404L7.47791 9.41704L10.9509 4.99204C10.9571 4.98429 10.9638 4.97694 10.9709 4.97004H10.9699Z" fill="#6C757D"/>
</svg>
