<svg width="302" height="512" viewBox="0 0 302 512" fill="none" xmlns="http://www.w3.org/2000/svg">
<path d="M0 30.6657C0 13.7295 10.8457 0 24.2246 0H277.775C291.154 0 302 13.7295 302 30.6657V480.43C302 497.366 291.154 511.095 277.775 511.095H24.2246C10.8457 511.095 0 497.366 0 480.43V30.6657Z" fill="white"/>
<path d="M34.7226 410.145C34.7226 395.688 43.9805 383.969 55.4006 383.969H246.672C258.093 383.969 267.35 395.688 267.35 410.145C267.35 424.602 258.093 436.321 246.672 436.321H55.4006C43.9805 436.321 34.7226 424.602 34.7226 410.145Z" fill="#2B2B2B"/>
<path d="M133.626 411.988H130.003V415.423H134.238V416.972H128.471V405.807H134.196V407.371H130.003V410.454H133.626V411.988Z" fill="white"/>
<path d="M142.483 416.972H140.95L137.019 409.05V416.972H135.486V405.807H137.019L140.962 413.759V405.807H142.483V416.972Z" fill="white"/>
<path d="M150.486 407.371H147.735V416.972H146.215V407.371H143.489V405.807H150.486V407.371Z" fill="white"/>
<path d="M154.89 412.67H153.181V416.972H151.649V405.807H154.75C155.768 405.807 156.554 406.095 157.107 406.673C157.66 407.251 157.937 408.087 157.937 409.181C157.937 409.927 157.794 410.554 157.507 411.06C157.224 411.561 156.828 411.947 156.319 412.218L158.3 416.873V416.972H156.659L154.89 412.67ZM153.181 411.113H154.756C155.273 411.113 155.677 410.95 155.968 410.623C156.259 410.29 156.404 409.838 156.404 409.265C156.404 408.667 156.269 408.204 155.998 407.877C155.732 407.55 155.332 407.381 154.799 407.371H153.181V411.113Z" fill="white"/>
<path d="M164.328 414.373H160.911L160.197 416.972H158.603L161.935 405.807H163.31L166.648 416.972H165.049L164.328 414.373ZM161.341 412.808H163.898L162.62 408.176L161.341 412.808Z" fill="white"/>
<path d="M170.895 412.67H169.187V416.972H167.654V405.807H170.756C171.773 405.807 172.559 406.095 173.112 406.673C173.666 407.251 173.942 408.087 173.942 409.181C173.942 409.927 173.799 410.554 173.512 411.06C173.229 411.561 172.834 411.947 172.325 412.218L174.306 416.873V416.972H172.664L170.895 412.67ZM169.187 411.113H170.762C171.279 411.113 171.683 410.95 171.973 410.623C172.264 410.29 172.409 409.838 172.409 409.265C172.409 408.667 172.274 408.204 172.004 407.877C171.737 407.55 171.337 407.381 170.804 407.371H169.187V411.113Z" fill="white"/>
<path d="M277.194 271.945C276.476 269.467 275.623 267.447 274.633 265.883L273.595 267.585C274.441 268.912 275.179 270.647 275.816 272.808C274.119 278.569 271.709 281.305 268.416 281.305C267.427 281.305 266.517 281.055 265.684 280.556L264.559 282.401C265.716 283.276 267.001 283.714 268.416 283.714C272.338 283.714 275.264 280.365 277.194 273.668C277.271 273.398 277.312 273.104 277.312 272.806C277.312 272.508 277.271 272.214 277.194 271.945ZM275.897 261.218L275.027 259.791C275.012 259.766 274.994 259.746 274.974 259.732C274.954 259.719 274.933 259.712 274.911 259.712C274.89 259.712 274.869 259.719 274.849 259.732C274.829 259.746 274.811 259.766 274.796 259.791L272.564 263.448C271.334 262.417 269.951 261.902 268.416 261.902C264.494 261.902 261.568 265.251 259.638 271.948C259.56 272.217 259.52 272.512 259.52 272.81C259.52 273.107 259.56 273.402 259.638 273.671C260.409 276.334 261.337 278.468 262.423 280.074L260.264 283.613C260.233 283.663 260.216 283.732 260.216 283.802C260.216 283.873 260.233 283.941 260.264 283.992L261.135 285.42C261.165 285.47 261.207 285.498 261.25 285.498C261.293 285.498 261.335 285.47 261.366 285.42L275.897 261.597C275.912 261.572 275.924 261.543 275.932 261.51C275.94 261.478 275.945 261.443 275.945 261.408C275.945 261.372 275.94 261.338 275.932 261.305C275.924 261.273 275.912 261.243 275.897 261.218ZM261.015 272.808C262.715 267.047 265.125 264.311 268.416 264.311C269.529 264.311 270.54 264.624 271.458 265.26L270.024 267.612C269.345 267.018 268.567 266.797 267.805 266.983C267.044 267.169 266.339 267.751 265.794 268.644C265.25 269.536 264.895 270.692 264.781 271.941C264.668 273.189 264.803 274.465 265.165 275.578L263.463 278.369C262.521 277.006 261.709 275.159 261.015 272.808ZM266.049 272.808C266.049 272.218 266.134 271.637 266.298 271.111C266.461 270.585 266.697 270.13 266.988 269.782C267.279 269.434 267.615 269.204 267.97 269.109C268.325 269.015 268.689 269.059 269.032 269.239L266.157 273.952C266.085 273.582 266.049 273.196 266.049 272.808Z" fill="black" fill-opacity="0.44"/>
<path d="M268.334 276.555C268.263 276.555 268.194 276.549 268.125 276.539L267.047 278.306C267.695 278.713 268.401 278.804 269.08 278.566C269.759 278.329 270.382 277.775 270.873 276.97C271.363 276.166 271.702 275.145 271.846 274.032C271.991 272.919 271.936 271.761 271.687 270.698L270.61 272.465C270.616 272.578 270.619 272.692 270.619 272.808C270.619 273.3 270.56 273.787 270.446 274.242C270.331 274.697 270.162 275.11 269.95 275.458C269.738 275.806 269.486 276.082 269.209 276.27C268.931 276.458 268.634 276.555 268.334 276.555Z" fill="black" fill-opacity="0.44"/>
<path fill-rule="evenodd" clip-rule="evenodd" d="M279.09 307.307L22 307.307L22 305.849L279.09 305.849L279.09 307.307Z" fill="black" fill-opacity="0.44"/>
<path d="M30.0369 258.923C29.718 258.348 29.2928 257.877 28.7612 257.511C28.2297 257.128 27.6237 256.936 26.9433 256.936C25.944 256.936 25.2158 257.25 24.7587 257.877C24.3016 258.487 24.073 259.324 24.073 260.387C24.073 261.119 24.1846 261.694 24.4079 262.112C24.6311 262.531 24.9713 262.879 25.4285 263.158C25.8962 263.42 26.4915 263.681 27.2144 263.943C28.0224 264.221 28.7187 264.553 29.3034 264.936C29.8881 265.319 30.3399 265.842 30.6588 266.505C30.9778 267.15 31.1372 268.03 31.1372 269.145C31.1372 270.278 30.9618 271.219 30.611 271.969C30.2602 272.718 29.7765 273.276 29.1599 273.642C28.5433 273.991 27.8417 274.165 27.055 274.165C25.2903 274.165 23.7754 273.267 22.5103 271.472L23.0684 269.982C23.4724 270.679 24.0252 271.28 24.7268 271.786C25.4391 272.291 26.2258 272.544 27.0869 272.544C27.9799 272.544 28.6815 272.274 29.1918 271.733C29.7021 271.193 29.9572 270.391 29.9572 269.328C29.9572 268.561 29.8296 267.951 29.5745 267.498C29.3193 267.028 28.9366 266.644 28.4264 266.348C27.9161 266.052 27.2889 265.764 26.5447 265.485C25.758 265.189 25.0936 264.858 24.5514 264.492C24.0199 264.126 23.6159 263.646 23.3395 263.054C23.0631 262.461 22.9249 261.659 22.9249 260.648C22.9249 259.498 23.095 258.531 23.4352 257.746C23.786 256.945 24.2644 256.343 24.8703 255.942C25.4763 255.524 26.1726 255.315 26.9593 255.315C27.7035 255.315 28.3732 255.507 28.9685 255.89C29.5639 256.256 30.1007 256.779 30.5791 257.459L30.0369 258.923Z" fill="black" fill-opacity="0.44"/>
<path d="M36.47 274.269C35.6727 274.269 34.9604 273.947 34.3332 273.302C33.706 272.657 33.2116 271.794 32.8502 270.714C32.4887 269.633 32.308 268.448 32.308 267.158C32.308 265.886 32.4834 264.718 32.8342 263.655C33.1957 262.592 33.69 261.746 34.3173 261.119C34.9445 260.474 35.6567 260.152 36.4541 260.152C37.2726 260.152 37.9902 260.474 38.6068 261.119C39.2234 261.764 39.7018 262.618 40.042 263.681C40.3928 264.727 40.5682 265.877 40.5682 267.132C40.5682 267.411 40.5629 267.646 40.5522 267.838H33.4402C33.4934 268.814 33.6635 269.686 33.9505 270.452C34.2375 271.202 34.6043 271.803 35.0508 272.256C35.4973 272.692 35.9863 272.91 36.5178 272.91C37.06 272.91 37.5703 272.683 38.0487 272.23C38.5271 271.777 38.8673 271.184 39.0692 270.452L40.0101 270.871C39.84 271.533 39.5742 272.126 39.2128 272.649C38.8619 273.154 38.4527 273.555 37.9849 273.851C37.5171 274.13 37.0122 274.269 36.47 274.269ZM33.4083 266.557H39.5476C39.5051 265.581 39.3403 264.718 39.0533 263.969C38.7663 263.202 38.3995 262.609 37.953 262.191C37.5065 261.755 37.0122 261.537 36.47 261.537C35.9278 261.537 35.4335 261.755 34.987 262.191C34.5405 262.609 34.1737 263.202 33.8867 263.969C33.6103 264.718 33.4508 265.581 33.4083 266.557Z" fill="black" fill-opacity="0.44"/>
<path d="M49.2256 274.008H48.1413V266.4C48.1413 264.797 47.9925 263.629 47.6948 262.897C47.4078 262.147 46.9613 261.773 46.3553 261.773C45.9301 261.773 45.5102 261.947 45.0956 262.295C44.681 262.627 44.3142 263.089 43.9953 263.681C43.687 264.256 43.4637 264.919 43.3255 265.668V274.008H42.2412V260.387H43.2298V263.472C43.5594 262.478 44.0431 261.677 44.681 261.067C45.3188 260.457 46.0098 260.152 46.754 260.152C47.3706 260.152 47.8596 260.396 48.221 260.884C48.5825 261.354 48.8376 262.034 48.9865 262.923C49.1459 263.794 49.2256 264.831 49.2256 266.034V274.008Z" fill="black" fill-opacity="0.44"/>
<path d="M58.5224 274.008H57.4381V266.4C57.4381 263.315 56.8002 261.773 55.5245 261.773C55.1099 261.773 54.706 261.947 54.3126 262.295C53.9193 262.627 53.5685 263.089 53.2602 263.681C52.9625 264.256 52.7499 264.919 52.6223 265.668V274.008H51.538V254.923H52.6223V263.472C52.9519 262.461 53.409 261.659 53.9937 261.067C54.589 260.457 55.2216 260.152 55.8913 260.152C56.5292 260.152 57.0394 260.404 57.4222 260.91C57.8049 261.398 58.0813 262.086 58.2514 262.975C58.4321 263.847 58.5224 264.866 58.5224 266.034V274.008Z" fill="black" fill-opacity="0.44"/>
<path d="M60.165 270.086C60.165 269.25 60.3139 268.526 60.6115 267.916C60.9092 267.289 61.3185 266.801 61.8394 266.452C62.3709 266.104 62.9822 265.929 63.6732 265.929C64.0772 265.929 64.4971 265.99 64.933 266.113C65.3688 266.217 65.7569 266.365 66.097 266.557V265.407C66.097 264.256 65.8897 263.341 65.4751 262.661C65.0605 261.982 64.4865 261.642 63.7529 261.642C63.3171 261.642 62.8812 261.781 62.4454 262.06C62.0095 262.322 61.5577 262.714 61.0899 263.237L60.6753 261.982C61.2175 261.372 61.749 260.919 62.2699 260.622C62.7909 260.309 63.3224 260.152 63.8646 260.152C64.8851 260.152 65.6931 260.631 66.2884 261.59C66.8837 262.548 67.1814 263.873 67.1814 265.563V271.864C67.1814 272.335 67.3143 272.579 67.58 272.596V274.008C67.3462 274.06 67.1814 274.078 67.0857 274.06C66.8199 274.043 66.618 273.903 66.4798 273.642C66.3416 273.381 66.2671 273.102 66.2565 272.805L66.2406 271.812C65.8685 272.596 65.3848 273.206 64.7895 273.642C64.1941 274.06 63.5882 274.269 62.9716 274.269C62.4294 274.269 61.9457 274.086 61.5205 273.72C61.0952 273.337 60.7604 272.832 60.5159 272.204C60.282 271.559 60.165 270.853 60.165 270.086ZM65.7303 271.132C65.9748 270.662 66.097 270.226 66.097 269.825V267.838C65.3635 267.367 64.5981 267.132 63.8008 267.132C63.0247 267.132 62.3975 267.385 61.9191 267.89C61.4407 268.396 61.2015 269.084 61.2015 269.956C61.2015 270.705 61.3769 271.385 61.7278 271.995C62.0892 272.605 62.5889 272.91 63.2267 272.91C63.7476 272.91 64.2313 272.744 64.6778 272.413C65.135 272.082 65.4858 271.655 65.7303 271.132Z" fill="black" fill-opacity="0.44"/>
<path fill-rule="evenodd" clip-rule="evenodd" d="M279.086 174.848L22 174.848L22 173.387L279.086 173.387L279.086 174.848Z" fill="black" fill-opacity="0.44"/>
<path d="M268.412 125.486C269.391 125.486 270.191 126.846 270.191 128.508C270.191 130.17 269.391 131.53 268.412 131.53C267.434 131.53 266.633 130.17 266.633 128.508C266.633 126.846 267.434 125.486 268.412 125.486Z" fill="#DADADA"/>
<path d="M268.412 140.596C270.814 140.596 273.572 142.545 273.75 143.618H263.075C263.28 142.53 266.019 140.596 268.412 140.596Z" fill="#DADADA"/>
<path d="M268.412 122.463C266.446 122.463 264.854 125.168 264.854 128.507C264.854 131.847 266.446 134.552 268.412 134.552C270.378 134.552 271.971 131.847 271.971 128.507C271.971 125.168 270.378 122.463 268.412 122.463Z" fill="#DADADA"/>
<path d="M268.412 137.574C266.037 137.574 261.296 139.599 261.296 143.619V146.641H275.529V143.619C275.529 139.599 270.788 137.574 268.412 137.574Z" fill="#DADADA"/>
<path d="M28.0285 145.475C27.1356 145.475 26.3808 145.213 25.7642 144.689C25.1583 144.165 24.6692 143.458 24.2972 142.568C23.9251 141.678 23.6593 140.683 23.4999 139.583C23.3404 138.466 23.2607 137.314 23.2607 136.127V126.753H24.361V136.127C24.361 137.104 24.4194 138.056 24.5364 138.981C24.6639 139.889 24.8659 140.709 25.1423 141.442C25.4187 142.175 25.7908 142.76 26.2585 143.197C26.7263 143.615 27.311 143.825 28.0126 143.825C28.7355 143.825 29.3308 143.607 29.7985 143.17C30.2769 142.734 30.6543 142.149 30.9307 141.416C31.2071 140.665 31.3985 139.836 31.5048 138.928C31.6217 138.003 31.6802 137.069 31.6802 136.127V126.753H32.7964V136.127C32.7964 137.366 32.7113 138.553 32.5413 139.688C32.3712 140.805 32.0948 141.8 31.7121 142.673C31.34 143.546 30.851 144.235 30.245 144.741C29.6391 145.23 28.9003 145.475 28.0285 145.475Z" fill="black" fill-opacity="0.44"/>
<path d="M37.7586 145.606C37.0782 145.606 36.4457 145.422 35.861 145.056C35.287 144.672 34.782 144.113 34.3461 143.38L34.7926 142.123C35.2604 142.839 35.7281 143.362 36.1959 143.694C36.6743 144.008 37.1792 144.165 37.7107 144.165C38.3486 144.165 38.8695 143.956 39.2735 143.537C39.6881 143.101 39.8954 142.481 39.8954 141.678C39.8954 141.137 39.7944 140.726 39.5924 140.447C39.401 140.15 39.1193 139.915 38.7472 139.74C38.3858 139.566 37.9499 139.365 37.4397 139.138C36.8656 138.876 36.3819 138.605 35.9886 138.326C35.6059 138.029 35.3135 137.663 35.1116 137.226C34.9202 136.773 34.8245 136.188 34.8245 135.472C34.8245 134.599 34.9574 133.866 35.2232 133.273C35.4996 132.679 35.8716 132.234 36.3394 131.937C36.8178 131.623 37.3493 131.466 37.934 131.466C38.5718 131.466 39.1353 131.632 39.6243 131.963C40.1133 132.295 40.5119 132.758 40.8202 133.351L40.294 134.556C40.007 133.997 39.6508 133.587 39.2256 133.325C38.811 133.046 38.3592 132.906 37.8702 132.906C37.53 132.906 37.2058 132.985 36.8975 133.142C36.5892 133.281 36.3341 133.526 36.1321 133.875C35.9407 134.206 35.8451 134.669 35.8451 135.263C35.8451 135.996 36.0098 136.502 36.3394 136.781C36.6689 137.061 37.1686 137.357 37.8383 137.672C38.4655 137.951 39.013 138.23 39.4808 138.509C39.9485 138.789 40.3099 139.164 40.5651 139.635C40.8202 140.089 40.9478 140.726 40.9478 141.547C40.9478 142.821 40.6554 143.816 40.0708 144.532C39.4861 145.248 38.7153 145.606 37.7586 145.606Z" fill="black" fill-opacity="0.44"/>
<path d="M42.6604 139.714V131.701H43.7447V139.4C43.7447 142.49 44.3878 144.034 45.6742 144.034C46.312 144.034 46.9073 143.694 47.4601 143.013C48.0235 142.332 48.4275 141.425 48.672 140.29V131.701H49.7563V143.197C49.7563 143.668 49.8839 143.912 50.139 143.93V145.344C50.0115 145.379 49.9105 145.396 49.8361 145.396C49.7723 145.396 49.7032 145.396 49.6288 145.396C49.4055 145.361 49.2142 145.221 49.0547 144.977C48.9059 144.733 48.8315 144.436 48.8315 144.087L48.7996 142.254C48.4381 143.319 47.9438 144.148 47.3166 144.741C46.7 145.317 46.0303 145.606 45.3074 145.606C43.5427 145.606 42.6604 143.642 42.6604 139.714Z" fill="black" fill-opacity="0.44"/>
<path d="M51.5383 141.416C51.5383 140.578 51.6871 139.854 51.9848 139.243C52.2824 138.614 52.6917 138.125 53.2126 137.776C53.7442 137.427 54.3554 137.253 55.0464 137.253C55.4504 137.253 55.8703 137.314 56.3062 137.436C56.742 137.541 57.13 137.689 57.4702 137.881V136.729C57.4702 135.577 57.2629 134.66 56.8483 133.98C56.4337 133.299 55.8597 132.958 55.1261 132.958C54.6903 132.958 54.2544 133.098 53.8186 133.377C53.3827 133.639 52.9309 134.032 52.4632 134.556L52.0486 133.299C52.5907 132.688 53.1223 132.234 53.6432 131.937C54.1641 131.623 54.6956 131.466 55.2378 131.466C56.2583 131.466 57.0662 131.946 57.6616 132.906C58.2569 133.866 58.5545 135.193 58.5545 136.886V143.197C58.5545 143.668 58.6874 143.912 58.9532 143.93V145.344C58.7193 145.396 58.5545 145.413 58.4589 145.396C58.1931 145.379 57.9911 145.239 57.8529 144.977C57.7147 144.715 57.6403 144.436 57.6297 144.139L57.6137 143.144C57.2416 143.93 56.758 144.541 56.1626 144.977C55.5673 145.396 54.9614 145.606 54.3448 145.606C53.8026 145.606 53.3189 145.422 52.8937 145.056C52.4685 144.672 52.1336 144.165 51.8891 143.537C51.6552 142.891 51.5383 142.184 51.5383 141.416ZM57.1035 142.463C57.348 141.992 57.4702 141.556 57.4702 141.154V139.164C56.7367 138.693 55.9713 138.457 55.174 138.457C54.3979 138.457 53.7707 138.71 53.2924 139.216C52.814 139.723 52.5748 140.412 52.5748 141.285C52.5748 142.036 52.7502 142.716 53.101 143.327C53.4624 143.938 53.9621 144.244 54.5999 144.244C55.1208 144.244 55.6045 144.078 56.051 143.746C56.5081 143.415 56.8589 142.987 57.1035 142.463ZM55.5886 129.109L54.871 128.664L55.8118 126.229H56.9599L55.5886 129.109Z" fill="black" fill-opacity="0.44"/>
<path d="M65.0433 133.273C64.3204 133.307 63.6826 133.639 63.1298 134.268C62.5876 134.896 62.2049 135.76 61.9817 136.86V145.344H60.8974V131.701H61.9179V134.975C62.2049 134.014 62.5823 133.238 63.0501 132.644C63.5284 132.051 64.0334 131.719 64.5649 131.649C64.6712 131.632 64.7616 131.623 64.836 131.623C64.9104 131.623 64.9795 131.632 65.0433 131.649V133.273Z" fill="black" fill-opacity="0.44"/>
<path d="M66.4878 128.847V126.229H67.5721V128.847H66.4878ZM66.4878 145.344V131.701H67.5721V145.344H66.4878Z" fill="black" fill-opacity="0.44"/>
<path d="M73.5004 145.606C72.7031 145.606 71.9909 145.283 71.3637 144.637C70.7471 143.991 70.2634 143.135 69.9126 142.071C69.5618 140.988 69.3864 139.819 69.3864 138.562C69.3864 137.288 69.5618 136.118 69.9126 135.053C70.274 133.971 70.763 133.107 71.3796 132.461C72.0068 131.797 72.7138 131.466 73.5004 131.466C74.2977 131.466 75.0047 131.797 75.6212 132.461C76.2485 133.107 76.7375 133.971 77.0883 135.053C77.4497 136.118 77.6304 137.288 77.6304 138.562C77.6304 139.819 77.455 140.988 77.1042 142.071C76.7534 143.135 76.2644 143.991 75.6372 144.637C75.0206 145.283 74.3084 145.606 73.5004 145.606ZM70.4866 138.588C70.4866 139.601 70.6195 140.526 70.8853 141.364C71.1617 142.184 71.5284 142.839 71.9856 143.327C72.4427 143.799 72.9476 144.034 73.5004 144.034C74.0532 144.034 74.5582 143.79 75.0153 143.301C75.4724 142.812 75.8392 142.149 76.1156 141.311C76.392 140.473 76.5302 139.548 76.5302 138.536C76.5302 137.523 76.392 136.598 76.1156 135.76C75.8392 134.922 75.4724 134.259 75.0153 133.77C74.5582 133.281 74.0532 133.037 73.5004 133.037C72.9583 133.037 72.4586 133.29 72.0015 133.796C71.5444 134.285 71.1776 134.948 70.9012 135.786C70.6248 136.624 70.4866 137.558 70.4866 138.588Z" fill="black" fill-opacity="0.44"/>
</svg>
