<svg width="30" height="30" viewBox="0 0 30 30" fill="none" xmlns="http://www.w3.org/2000/svg">
<path d="M27.5 3.75H2.5V11.25H3.75V25C3.75 25.663 4.01339 26.2989 4.48223 26.7678C4.95107 27.2366 5.58696 27.5 6.25 27.5H23.75C24.413 27.5 25.0489 27.2366 25.5178 26.7678C25.9866 26.2989 26.25 25.663 26.25 25V11.25H27.5V3.75ZM5 6.25H25V8.75H5V6.25ZM23.75 25H6.25V11.25H23.75V25ZM11.25 13.75H18.75C18.75 14.413 18.4866 15.0489 18.0178 15.5178C17.5489 15.9866 16.913 16.25 16.25 16.25H13.75C13.087 16.25 12.4511 15.9866 11.9822 15.5178C11.5134 15.0489 11.25 14.413 11.25 13.75Z" fill="#6C757D"/>
</svg>
