<svg width="24" height="24" viewBox="0 0 24 24" fill="none" xmlns="http://www.w3.org/2000/svg">
<path d="M9.2 15.8H10.8V14.2H9.2V15.8ZM10 3C8.94943 3 7.90914 3.20693 6.93853 3.60896C5.96793 4.011 5.08601 4.60028 4.34315 5.34315C2.84285 6.84344 2 8.87827 2 11C2 13.1217 2.84285 15.1566 4.34315 16.6569C5.08601 17.3997 5.96793 17.989 6.93853 18.391C7.90914 18.7931 8.94943 19 10 19C12.1217 19 14.1566 18.1571 15.6569 16.6569C17.1571 15.1566 18 13.1217 18 11C18 9.94943 17.7931 8.90914 17.391 7.93853C16.989 6.96793 16.3997 6.08601 15.6569 5.34315C14.914 4.60028 14.0321 4.011 13.0615 3.60896C12.0909 3.20693 11.0506 3 10 3ZM10 17.4C6.472 17.4 3.6 14.528 3.6 11C3.6 7.472 6.472 4.6 10 4.6C13.528 4.6 16.4 7.472 16.4 11C16.4 14.528 13.528 17.4 10 17.4ZM10 6.2C9.15131 6.2 8.33737 6.53714 7.73726 7.13726C7.13714 7.73737 6.8 8.55131 6.8 9.4H8.4C8.4 8.97565 8.56857 8.56869 8.86863 8.26863C9.16869 7.96857 9.57565 7.8 10 7.8C10.4243 7.8 10.8313 7.96857 11.1314 8.26863C11.4314 8.56869 11.6 8.97565 11.6 9.4C11.6 11 9.2 10.8 9.2 13.4H10.8C10.8 11.6 13.2 11.4 13.2 9.4C13.2 8.55131 12.8629 7.73737 12.2627 7.13726C11.6626 6.53714 10.8487 6.2 10 6.2Z" fill="#6C757D"/>
</svg>
