<svg width="16" height="16" viewBox="0 0 16 16" fill="none" xmlns="http://www.w3.org/2000/svg">
<path d="M13.3333 0H2.66667C1.19387 0 0 1.19387 0 2.66667V13.3333C0 14.8061 1.19387 16 2.66667 16H13.3333C14.8061 16 16 14.8061 16 13.3333V2.66667C16 1.19387 14.8061 0 13.3333 0ZM5.06667 9.86667H4.38587L3.03013 7.43173V9.86667H2.4V6.13333H3.06053L4.43653 8.62613V6.13333H5.06667V9.86667ZM8.8 9.86667H6.13333V6.13333H8.73333V6.76453H6.84107V7.59227H8.60107V8.22133H6.84107V9.2368H8.8V9.86667ZM13.2448 9.86667H12.4613L11.7336 7.07547L11.0077 9.86667H10.2067L9.33333 6.13333H10.0896L10.6411 8.69733L11.3093 6.13333H12.1875L12.8285 8.74107L13.3901 6.13333H14.1333L13.2448 9.86667Z" fill="#6C757D"/>
</svg>
