<svg width="30" height="30" viewBox="0 0 30 30" fill="none" xmlns="http://www.w3.org/2000/svg">
<path d="M12.5 5H17.5V10H12.5V5ZM5 20H10V25H5V20ZM5 12.5H10V17.5H5V12.5ZM5 5H10V10H5V5ZM17.5 15.525V12.5H12.5V17.5H15.525L17.5 15.525ZM26.1 14.1125L24.6375 12.65C24.5899 12.6024 24.5334 12.5646 24.4712 12.5388C24.409 12.5131 24.3423 12.4998 24.275 12.4998C24.2077 12.4998 24.141 12.5131 24.0788 12.5388C24.0166 12.5646 23.9601 12.6024 23.9125 12.65L22.8125 13.75L25 15.9375L26.1 14.8375C26.1476 14.7899 26.1854 14.7334 26.2112 14.6712C26.2369 14.609 26.2502 14.5423 26.2502 14.475C26.2502 14.4077 26.2369 14.341 26.2112 14.2788C26.1854 14.2166 26.1476 14.1601 26.1 14.1125ZM13.75 22.8125V25H15.9375L24.275 16.6625L22.0875 14.475L13.75 22.8125ZM20 5H25V10H20V5Z" fill="#6C757D"/>
</svg>
