<svg width="40" height="40" viewBox="0 0 40 40" fill="none" xmlns="http://www.w3.org/2000/svg">
<path d="M3.33325 24.7357C3.33325 23.734 3.55492 22.7398 4.14242 21.929C5.87075 19.5415 10.5591 14.6665 19.9999 14.6665C29.4416 14.6665 34.1291 19.5423 35.8574 21.929C36.4449 22.7398 36.6666 23.734 36.6666 24.7357C36.6666 26.4854 35.9715 28.1635 34.7342 29.4008C33.497 30.6381 31.8189 31.3332 30.0691 31.3332H9.93075C8.18099 31.3332 6.50289 30.6381 5.26562 29.4008C4.02834 28.1635 3.33325 26.4854 3.33325 24.7357V24.7357Z" stroke="white" stroke-width="1.33333" stroke-linecap="round" stroke-linejoin="round"/>
<path d="M9.99984 5.49992V8.83325M11.6665 16.3333V19.6666M29.9998 5.49992V8.83325M28.3332 16.3333V19.6666M19.9998 3.83325V8.83325M19.9998 14.6666V21.3333M33.3332 19.2024C30.7548 16.9833 26.5065 14.6666 19.9998 14.6666C13.4932 14.6666 9.24484 16.9824 6.6665 19.2024" stroke="white" stroke-width="1.33333" stroke-linecap="round"/>
</svg>
